<svg xmlns="http://www.w3.org/2000/svg" viewBox="0 0 16.597 16">
  <defs>
    <style>
      .cls-1 {
        opacity: 0.5;
      }

      .cls-2 {
        fill: #ffa816;
      }

      .cls-3 {
        fill: #fff;
      }

      .cls-4 {
        fill: #ffc843;
      }

      .cls-5 {
        fill: #602f75;
      }
    </style>
  </defs>
  <g id="Group_60" data-name="Group 60" transform="translate(-31 -192)">
    <g id="Group_10" data-name="Group 10" class="cls-1" transform="translate(-155 4)">
      <g id="Group_5" data-name="Group 5" transform="translate(186.331 188.331)">
        <path id="Path_24" data-name="Path 24" class="cls-2" d="M18.167,122.5l-7.968-2.94V110.1l7.968,2.94Z" transform="translate(-10.199 -107.157)"/>
        <path id="Path_25" data-name="Path 25" class="cls-2" d="M256,122.5l7.968-2.94V110.1L256,113.037Z" transform="translate(-248.032 -107.157)"/>
        <path id="Path_26" data-name="Path 26" class="cls-2" d="M26.134,22.34l-7.968,2.94L10.2,22.34l7.968-2.94Z" transform="translate(-10.199 -19.4)"/>
      </g>
      <g id="Group_6" data-name="Group 6" transform="translate(188.48 190.743)">
        <path id="Path_27" data-name="Path 27" class="cls-3" d="M80.065,140.033l-3.571-1.318v-4.239l3.571,1.318Z" transform="translate(-76.494 -133.16)"/>
        <path id="Path_28" data-name="Path 28" class="cls-3" d="M83.635,95.15l-3.571,1.317L76.494,95.15l3.571-1.317Z" transform="translate(-76.494 -93.833)"/>
      </g>
      <path id="Path_29" data-name="Path 29" class="cls-4" d="M348.384,363.186l-3.438,1.269a.331.331,0,1,0,.229.62l3.438-1.269a.331.331,0,0,0-.229-.62Z" transform="translate(-147.555 -163.692)"/>
      <path id="Path_30" data-name="Path 30" class="cls-4" d="M311.436,413.087l-.146.054a.331.331,0,1,0,.229.62l.146-.054a.331.331,0,1,0-.229-.62Z" transform="translate(-114.99 -211.975)"/>
      <path id="Path_31" data-name="Path 31" class="cls-4" d="M369.91,321.626l-2.717,1a.331.331,0,1,0,.229.62l2.717-1a.331.331,0,1,0-.229-.62Z" transform="translate(-169.081 -123.479)"/>
      <path id="Path_32" data-name="Path 32" class="cls-4" d="M369.91,280.5l-2.717,1a.331.331,0,1,0,.229.62l2.717-1a.331.331,0,1,0-.229-.62Z" transform="translate(-169.081 -83.683)"/>
      <path id="Path_33" data-name="Path 33" class="cls-5" d="M16.38,12.162,8.413,9.222a.331.331,0,0,0-.229,0L.216,12.162h0a.329.329,0,0,0-.216.31v9.459a.331.331,0,0,0,.216.31l7.968,2.94a.329.329,0,0,0,.229,0h0l7.968-2.94a.331.331,0,0,0,.216-.31V12.473A.331.331,0,0,0,16.38,12.162ZM2.81,13.74,5.72,14.813v3.531L2.81,17.271Zm3.24.488-2.616-.965L6.05,12.3l2.616.965ZM8.3,9.885l7.013,2.588L8.3,15.06,7,14.582l2.734-1.009a.331.331,0,0,0,0-.62L6.165,11.635a.331.331,0,0,0-.229,0l-3.46,1.277-1.19-.439ZM.661,12.947l1.488.549V17.5a.331.331,0,0,0,.216.31l3.571,1.318a.331.331,0,0,0,.445-.31V15.057l1.587.586V24.4L.661,21.7ZM8.629,24.4V15.643l7.306-2.7V21.7Z" transform="translate(186 178.798)"/>
    </g>
  </g>
</svg>
