<svg xmlns="http://www.w3.org/2000/svg" viewBox="0 0 28.445 16">
  <defs>
    <style>
      .cls-1 {
        opacity: 0.5;
      }

      .cls-2 {
        fill: #fff;
      }

      .cls-3 {
        fill: #602f75;
      }

      .cls-4 {
        fill: #44c4a1;
      }

      .cls-5 {
        fill: #ffe600;
      }

      .cls-6 {
        fill: #f56369;
      }
    </style>
  </defs>
  <g id="Group_91" data-name="Group 91" class="cls-1" transform="translate(-183 -143)">
    <path id="Path_9" data-name="Path 9" class="cls-2" d="M109.227,110.287v-5.734a2.153,2.153,0,0,1,2.153-2.153h9.026a2.153,2.153,0,0,1,2.153,2.153v8.05a.019.019,0,0,1-.019.019H109.227" transform="translate(80.884 41.044)"/>
    <path id="Path_10" data-name="Path 10" class="cls-3" d="M116.159,106.684H102.844a.444.444,0,1,1,0-.889h12.889V98.171a1.711,1.711,0,0,0-1.709-1.709H105a1.711,1.711,0,0,0-1.709,1.709V103.9a.444.444,0,1,1-.889,0V98.171a2.6,2.6,0,0,1,2.6-2.6h9.026a2.6,2.6,0,0,1,2.6,2.6v8.05A.477.477,0,0,1,116.159,106.684Z" transform="translate(87.267 47.427)"/>
    <g id="Group_2" data-name="Group 2" transform="translate(183 143.444)">
      <path id="Path_11" data-name="Path 11" class="cls-4" d="M24.48,103.288H20.924a.444.444,0,1,1,0-.889H24.48a.444.444,0,1,1,0,.889Z" transform="translate(-19.147 -102.399)"/>
      <path id="Path_12" data-name="Path 12" class="cls-4" d="M56.391,137.422H55.057a.444.444,0,0,1,0-.889h1.333a.444.444,0,1,1,0,.889Z" transform="translate(-51.057 -134.311)"/>
      <path id="Path_13" data-name="Path 13" class="cls-4" d="M2.667,137.422H.444a.444.444,0,0,1,0-.889H2.667a.444.444,0,0,1,0,.889Z" transform="translate(0 -134.311)"/>
      <path id="Path_14" data-name="Path 14" class="cls-4" d="M50.008,171.555H48.23a.444.444,0,0,1,0-.889h1.778a.444.444,0,1,1,0,.889Z" transform="translate(-44.675 -166.222)"/>
    </g>
    <path id="Path_15" data-name="Path 15" class="cls-5" d="M128.526,262.524h-19.3v-3.111h20.889v1.521A1.59,1.59,0,0,1,128.526,262.524Z" transform="translate(80.884 -105.746)"/>
    <path id="Path_16" data-name="Path 16" class="cls-3" d="M122.143,256.586h-19.3a.444.444,0,0,1-.444-.445V253.03a.444.444,0,0,1,.444-.444h20.889a.444.444,0,0,1,.444.444v1.521A2.037,2.037,0,0,1,122.143,256.586Zm-18.855-.889h18.855a1.147,1.147,0,0,0,1.145-1.145v-1.077h-20Z" transform="translate(87.267 -99.364)"/>
    <path id="Path_17" data-name="Path 17" class="cls-6" d="M314.027,150.187h3.155a4.4,4.4,0,0,1,4.4,4.4V157.3h-7.555Z" transform="translate(-110.583 -3.631)"/>
    <path id="Path_18" data-name="Path 18" class="cls-3" d="M315.2,151.36h-7.555a.444.444,0,0,1-.444-.444V143.8a.444.444,0,0,1,.444-.444H310.8a4.851,4.851,0,0,1,4.845,4.845v2.711A.444.444,0,0,1,315.2,151.36Zm-7.111-.889h6.667v-2.266a3.961,3.961,0,0,0-3.956-3.956h-2.711Z" transform="translate(-104.2 2.751)"/>
    <path id="Path_19" data-name="Path 19" class="cls-2" d="M339.4,180.16h-4.889v-2.667h2.222a2.667,2.667,0,0,1,2.667,2.667Z" transform="translate(-129.729 -29.16)"/>
    <path id="Path_20" data-name="Path 20" class="cls-3" d="M333.013,174.222h-4.889a.444.444,0,0,1-.444-.444v-2.667a.444.444,0,0,1,.444-.444h2.222a3.115,3.115,0,0,1,3.111,3.111A.444.444,0,0,1,333.013,174.222Zm-4.444-.889h3.955a2.226,2.226,0,0,0-2.178-1.778h-1.778Z" transform="translate(-123.347 -22.777)"/>
    <ellipse id="Ellipse_1" data-name="Ellipse 1" class="cls-2" cx="1.778" cy="1.778" rx="1.778" ry="1.778" transform="translate(191.889 155)"/>
    <path id="Path_21" data-name="Path 21" class="cls-3" d="M131.929,277.511a2.222,2.222,0,1,1,2.222-2.222A2.225,2.225,0,0,1,131.929,277.511Zm0-3.556a1.333,1.333,0,1,0,1.333,1.333A1.335,1.335,0,0,0,131.929,273.956Z" transform="translate(61.737 -118.511)"/>
    <ellipse id="Ellipse_2" data-name="Ellipse 2" class="cls-2" cx="1.778" cy="1.778" rx="1.778" ry="1.778" transform="translate(205.667 155)"/>
    <g id="Group_3" data-name="Group 3" transform="translate(183.444 154.556)">
      <path id="Path_22" data-name="Path 22" class="cls-3" d="M343.556,277.511a2.222,2.222,0,1,1,2.222-2.222A2.225,2.225,0,0,1,343.556,277.511Zm0-3.556a1.333,1.333,0,1,0,1.333,1.333A1.335,1.335,0,0,0,343.556,273.956Z" transform="translate(-319.556 -273.067)"/>
      <path id="Path_23" data-name="Path 23" class="cls-3" d="M34.382,328.568H7.27a.444.444,0,0,1,0-.889H34.382a.444.444,0,0,1,0,.889Z" transform="translate(-6.826 -324.124)"/>
    </g>
  </g>
</svg>
